<svg width="280" height="280" viewBox="0 0 280 280" fill="none" xmlns="http://www.w3.org/2000/svg">
<mask id="path-1-inside-1_151_124" fill="white">
<path d="M0 140C0 62.6801 62.6801 0 140 0C217.32 0 280 62.6801 280 140C280 217.32 217.32 280 140 280C62.6801 280 0 217.32 0 140Z"/>
</mask>
<path d="M0 140C0 62.6801 62.6801 0 140 0C217.32 0 280 62.6801 280 140C280 217.32 217.32 280 140 280C62.6801 280 0 217.32 0 140Z" fill="#232323"/>
<path d="M0 0H280H0ZM280 148C280 225.32 217.32 288 140 288C62.6801 288 0 225.32 0 148V140C0 212.902 62.6801 272 140 272C217.32 272 280 212.902 280 140V148ZM0 280V0V280ZM280 0V280V0Z" fill="#FFA500" mask="url(#path-1-inside-1_151_124)"/>
<path d="M140 98.6209C147.421 103.993 154.966 110.411 162.277 117.722C169.589 125.034 176.007 132.579 181.379 140.001M140 98.6209C132.579 103.993 125.034 110.411 117.723 117.723C110.412 125.034 103.993 132.579 98.6209 140.001M140 98.6209C163.799 81.3919 186.315 74.9272 195.694 84.3063C205.073 93.6854 198.608 116.201 181.379 140.001M181.379 140.001C198.608 163.799 205.072 186.315 195.693 195.694C188.739 202.647 174.565 200.892 158 192.498M181.379 140.001C176.007 147.421 169.589 154.967 162.278 162.277C154.967 169.589 147.421 176.007 140 181.379M98.6209 140.001C103.993 147.421 110.411 154.967 117.722 162.277C125.034 169.589 132.579 176.007 140 181.379M98.6209 140.001C81.3923 163.799 74.9278 186.315 84.3068 195.694C93.6858 205.073 116.201 198.608 140 181.379M98.6209 140.001C81.3919 116.201 74.9271 93.6853 84.3062 84.3062C91.26 77.3524 105.435 79.1079 122 87.5025" stroke="#FFA500" stroke-width="6" stroke-linecap="round"/>
<path d="M140 153.333C147.364 153.333 153.333 147.364 153.333 140C153.333 132.636 147.364 126.667 140 126.667C132.636 126.667 126.667 132.636 126.667 140C126.667 147.364 132.636 153.333 140 153.333Z" stroke="#FFA500" stroke-width="6"/>
</svg>
